PathFileType	4	(X/Y/Z)	RBDS027\RBDS027runT25.trc
DataRate	CameraRate	NumFrames	NumMarkers	Units	OrigDataRate	OrigDataStartFrame	OrigNumFrames
150.000000	150.000000	5	33	mm	150.000000	3937	4500
Frame#	Time	L.ASIS			L.Heel.Bottom			L.Heel.Lateral			L.Heel.Top			L.Iliac.Crest			L.MT1			L.MT5			L.PSIS			L.Shank.Bottom.Lateral			L.Shank.Bottom.Medial			L.Shank.Top.Lateral			L.Shank.Top.Medial			L.Thigh.Bottom.Lateral			L.Thigh.Bottom.Medial			L.Thigh.Top.Lateral			L.Thigh.Top.Medial			R.ASIS			R.ASY			R.Heel.Bottom			R.Heel.Lateral			R.Heel.Top			R.Iliac.Crest			R.MT1			R.MT5			R.PSIS			R.Shank.Bottom.Lateral			R.Shank.Bottom.Medial			R.Shank.Top.Lateral			R.Shank.Top.Medial			R.Thigh.Bottom.Lateral			R.Thigh.Bottom.Medial			R.Thigh.Top.Lateral			R.Thigh.Top.Medial			
		X1	Y1	Z1	X2	Y2	Z2	X3	Y3	Z3	X4	Y4	Z4	X5	Y5	Z5	X6	Y6	Z6	X7	Y7	Z7	X8	Y8	Z8	X9	Y9	Z9	X10	Y10	Z10	X11	Y11	Z11	X12	Y12	Z12	X13	Y13	Z13	X14	Y14	Z14	X15	Y15	Z15	X16	Y16	Z16	X17	Y17	Z17	X18	Y18	Z18	X19	Y19	Z19	X20	Y20	Z20	X21	Y21	Z21	X22	Y22	Z22	X23	Y23	Z23	X24	Y24	Z24	X25	Y25	Z25	X26	Y26	Z26	X27	Y27	Z27	X28	Y28	Z28	X29	Y29	Z29	X30	Y30	Z30	X31	Y31	Z31	X32	Y32	Z32	X33	Y33	Z33	

3938	26.24666666666667	2113.371250472553	859.2537915919442	868.9556975156577	1512.168479946755	391.2486498652858	976.2430247600278	1519.675527741062	361.52684030508	927.2747596797232	1558.865141046018	376.2901969893503	965.2550633992945	2075.737280442363	944.7019911699157	844.7265130079496	1524.814580220975	175.0673212364503	1003.824692438306	1496.908381566336	213.4528774787934	901.564295665519	1952.018282778398	899.5325053263261	950.5919309923756	1618.436959146804	347.2789622390818	896.5700463422929	1611.736018710489	375.2623883425983	944.029870406559	1683.453025000627	391.8628367925278	881.4315323638918	1679.900140791261	417.2256776721207	928.360747980814	1941.086657147193	519.4384619256285	831.1758081370338	1895.105456656283	531.0355494511747	885.348983886853	1951.96602142612	628.6539831408719	821.3427317645608	1909.602171437926	639.9269834973117	873.7731513698246	2107.73944360636	876.4997937476437	1127.896812472081	2270.602900569064	78.41370316112041	1040.02477962734	2091.120380792742	33.93296173292779	990.7443160432517	2112.038110339128	44.4824173433508	1040.956100748933	2102.981075613757	77.87002769506891	998.5840165031501	2054.96499756897	955.6549764153954	1152.637373466655	2312.441774391819	31.00895159376321	989.5719824161218	2254.443023507706	29.79006193734767	1096.418007250465	1949.6684748326	898.423457944347	1047.606301964348	2158.430845921877	144.3440488412255	1073.407878740162	2130.769231361723	160.1014071610937	1033.428955098389	2156.950737788402	223.4648141845462	1103.711887959026	2128.759295041859	235.8232003564718	1060.456040569718	2179.253633899476	530.1683205501182	1158.869394293048	2126.999560313781	499.3668384568173	1118.066054893687	2111.463003290867	614.4585367268842	1174.859687557775	2060.906854874432	585.141367568699	1136.550030910446	
3939	26.25333333333333	2113.337825457677	853.2561315595502	869.0755824296874	1522.869312547545	397.5059971744496	974.3558806509279	1528.679058389381	367.324405751284	925.4037344661115	1568.72146482801	380.2097346159152	963.0522614174395	2075.272200847728	937.6931337179328	844.1780353833816	1524.818088199963	180.8497134373203	1001.817919697618	1498.473701074881	220.548314635093	899.7347424896618	1951.099379696319	891.9099819856899	949.7338419470929	1625.840276050571	348.5283478640565	894.7475615257616	1619.990614049375	377.0139787155722	942.0020846502886	1692.419027614655	390.6055323424942	879.5484321944359	1689.588838593598	416.3662742871437	926.3280212215533	1947.992446382966	510.5464983712817	830.6429713641419	1901.655772910708	521.011829642992	884.7541665123226	1956.348551440994	619.9773743546762	820.890518327033	1913.580552348042	630.2531068873651	873.1627315343737	2105.984317320816	871.6752471051919	1128.191582687031	2253.169213761647	77.69562712159976	1037.932126856062	2073.68256209096	31.81977986681968	989.8956825878928	2094.655495528565	43.61419458788611	1039.862347548911	2085.429771656274	75.99410781863185	996.7510021066884	2053.681728832721	949.7244974595516	1152.359455108702	2295.381363195969	30.14730196203324	988.6916929319343	2237.30064622816	30.45452832268609	1095.654963997036	1948.046277579594	892.1808888460722	1046.531309656667	2144.720089488429	143.5772087976793	1071.518532132567	2117.230522917751	160.7070970771219	1032.030572965184	2147.338723066372	222.6781247368338	1102.054555116735	2119.169544161104	236.4457468723718	1059.243625328618	2179.341560542282	526.0534801692507	1158.105600885191	2127.251682237453	494.756233765054	1117.394414651181	2110.790068291382	609.7655026832604	1174.004694221182	2060.336391694755	579.8923166221215	1135.800157881141	
3940	26.26	2113.03853688768	847.1713454090432	869.2156372828468	1534.414902760563	403.074950426494	972.2258125459851	1538.691286926537	372.4873821101824	923.3014453938373	1579.422829413834	383.608593172678	960.7476860803297	2074.627387637671	930.5514434182743	843.5766174188121	1526.222118174379	186.3421235869297	999.6480134764378	1501.550567190656	227.148796352261	897.6621686103044	1949.970614832066	884.4825233735119	948.8693758838569	1634.169328867687	349.4216615472572	892.8301957132683	1629.126813887822	378.3796304958348	939.8863464558881	1702.193427878774	389.0196459756395	877.634651035348	1700.023274088346	415.1539925142646	924.2626197758574	1955.141829136172	501.8423963576628	830.173733134301	1908.467494564596	511.12158628191	884.2196054426198	1960.861380766249	611.4277590662849	820.4760954214877	1917.708444300288	620.6488725552404	872.5725626080045	2104.051524000805	866.8680367139378	1128.559870949823	2235.648168275864	77.19329645142555	1036.189800501967	2056.227144079622	29.9862709835074	989.3496036200912	2077.275626837381	42.90079852685798	1039.0600089882	2067.834926400249	74.36056960940763	995.3104606461052	2052.17601332529	943.5665345209544	1152.185318255588	2278.249571973462	29.72672696759077	988.1035873413352	2220.156706438294	31.1160606506919	1095.107368483868	1946.299688822997	886.1289370047589	1045.436808286961	2130.878424501549	142.9635014979243	1070.001039842904	2103.585478500927	161.4194688501007	1031.009857084984	2137.437768901964	221.8860393921502	1100.708984483533	2109.302956463742	237.0127584972438	1058.368241862154	2178.52632478708	521.6667721085594	1157.24475726046	2126.562115394667	490.132269352881	1116.512514088114	2109.511980015549	605.0249325399224	1173.150108583801	2059.125516327897	574.8410023583414	1134.933023461188	
3941	26.26666666666667	2112.454589241271	841.0864273428438	869.3759903902646	1546.537508761533	407.9226986914134	969.8001449836589	1549.544659043314	376.962128852998	920.9337557682419	1590.758734676863	386.5271230832986	958.3548563569796	2073.754919819336	923.4186873294468	842.932029102201	1529.10996947146	191.4506629313177	997.3659420612545	1506.237592936962	233.0796564475024	895.3550151267262	1948.644997509685	877.4134818667794	948.0065987335506	1643.381132335602	350.0000554837733	890.8319528416941	1639.084077011473	379.4011915749136	937.7004864343452	1712.731088210663	387.1822266998745	875.7185533978859	1711.150691283724	413.6667514055031	922.1917597321457	1962.558138762159	493.416123185382	829.7438206199683	1915.553832870926	501.448115456902	883.7089988776756	1965.515910756058	603.0884823356902	820.0727957207844	1921.968711233105	611.1896017096033	871.9557975534315	2101.966795821015	862.1629750935415	1128.999635880122	2218.234793986844	76.80743872177949	1034.786949199885	2038.908562260649	28.51789730626647	989.0195366894974	2060.039229846725	42.37831544049085	1038.478729808353	2050.393937643647	73.04235181931959	994.2013892875666	2050.402546453678	937.2603910777518	1152.123255023818	2261.202268230622	29.56947652922854	987.7625571208241	2203.109988493554	31.69452678054818	1094.743396355231	1944.446802539636	880.378193607963	1044.329121748579	2117.051359644421	142.4473018378602	1068.830562361752	2089.98316494783	162.1697422545974	1030.329811702355	2127.328944016192	221.0394770944489	1099.664570596999	2099.249852344693	237.4648648712606	1057.805074941802	2176.807058093126	517.0845777501655	1156.326337354035	2124.915807089464	485.552747012791	1115.483509086335	2107.632295223313	600.3182374597852	1172.317552736864	2057.26687475206	570.0612944690046	1133.992080028565	
3942	26.27333333333333	2111.577845966774	835.0963443147548	869.5547997008417	1558.976707903337	412.0357516100648	967.0502828074978	1561.060198455232	380.7134331934424	918.2873928231733	1602.52164683153	389.0127235904324	955.8903545369145	2072.607422526733	916.4434795843551	842.2553402295928	1533.540315761584	196.070161318507	995.0157726170748	1512.585188381992	238.1775034736905	892.8319485896142	1947.140996153758	870.8480805213647	947.159922720879	1653.423004772713	350.3078367645628	888.7689491404351	1649.791964881835	380.1231941200479	935.4631719353492	1723.976342121232	385.1776015600383	873.8272834463027	1722.907058042436	411.9894635405934	920.1426582495515	1970.259235312338	485.361748952784	829.3333363449088	1922.929520495598	492.0784858825446	883.1933440015772	1970.318949740721	595.0455578713805	819.6581707376361	1926.348583192855	601.9518012185438	871.2757367775038	2099.761474939166	857.6369124648736	1129.495137268511	2201.04997868848	76.46211348512549	1033.688121545347	2021.808881745388	27.46047894333557	988.8271533312105	2043.020188182267	42.06796910019001	1038.052413326555	2033.221718966874	72.07988255452616	993.3567612184791	2048.335169354566	930.9131856795495	1152.171126890112	2244.32250735867	29.51991552071488	987.6063115650634	2186.205234507325	32.14206158263245	1094.521398172135	1942.507534817948	875.0290246339281	1043.225849353701	2103.312716780039	141.9925835802636	1067.959474215877	2076.505303795188	162.9119800741824	1029.928233949645	2117.046553065516	220.1166784005294	1098.888389312314	2089.058119566883	237.7734774833373	1057.503044400669	2174.225995871298	512.3933569430737	1155.407889077519	2122.345334568523	481.0668465910048	1114.39631768432	2105.178239846373	595.7218647368368	1171.536503047369	2054.780371503292	565.6035550871461	1133.039711613151	
